<svg version="1.1" id="Layer_1" xmlns="http://www.w3.org/2000/svg" xmlns:xlink="http://www.w3.org/1999/xlink" x="0px" y="0px"
	 width="100%" viewBox="0 0 289 132" enable-background="new 0 0 289 132" xml:space="preserve">
<path fill="#FFFFFF" opacity="1.000000" stroke="none" 
	d="
M187.000000,133.000000 
	C126.000008,133.000000 65.499931,132.963104 5.000236,133.096893 
	C1.575409,133.104462 0.889180,132.425629 0.901696,128.999649 
	C1.053309,87.500221 1.039926,45.999912 0.916278,4.500287 
	C0.907390,1.517050 1.517820,0.915115 4.500049,0.918275 
	C98.499939,1.017871 192.499954,1.017864 286.499847,0.918298 
	C289.481812,0.915139 290.092590,1.516656 290.083740,4.500175 
	C289.960205,46.166470 289.960236,87.833359 290.083710,129.499664 
	C290.092529,132.482742 289.484039,133.096741 286.499756,133.084579 
	C253.500259,132.950119 220.500031,133.000000 187.000000,133.000000 
z"/>
<path fill="#75A3EC" opacity="1.000000" stroke="none" 
	d="
M59.658447,52.602844 
	C55.724350,53.908138 57.137348,56.983479 56.935173,59.433979 
	C56.778694,61.330616 57.005749,63.056301 54.186062,63.061417 
	C51.405113,63.066460 51.406635,61.408539 51.411480,59.467300 
	C51.429321,52.322529 51.422981,45.177685 51.415035,38.032875 
	C51.412868,36.086689 51.519489,34.365879 54.194199,34.291824 
	C57.003937,34.214039 56.925507,36.011116 56.901672,37.932991 
	C56.871101,40.397831 56.894241,42.863338 56.894241,46.074989 
	C60.264317,43.583576 61.712574,40.393230 63.960236,37.929817 
	C65.058769,36.725834 65.678429,34.881077 67.422646,34.512096 
	C68.658226,34.250717 70.458702,34.079689 71.229378,34.755341 
	C72.685730,36.032143 70.815186,37.032066 70.117012,37.957066 
	C63.077446,47.283707 63.064419,47.269070 69.469742,57.142181 
	C70.539543,58.791161 71.564957,60.468937 72.747986,62.351593 
	C68.966202,63.904320 66.749435,62.765129 64.880737,59.551723 
	C63.488499,57.157646 62.482697,54.397121 59.658447,52.602844 
z"/>
<path fill="#74A3EC" opacity="1.000000" stroke="none" 
	d="
M93.721390,63.003609 
	C91.404320,63.285862 90.263718,62.383976 89.498184,60.638557 
	C88.565910,58.512989 87.377090,56.499592 86.452477,54.371113 
	C85.678421,52.589245 84.484406,51.804363 82.564522,52.080971 
	C80.234772,52.416634 81.019402,54.259590 80.920288,55.591022 
	C80.797333,57.242783 80.845406,58.910591 80.882965,60.570034 
	C80.919998,62.206593 80.234993,63.003490 78.539337,63.009720 
	C76.987221,63.015423 75.973488,62.595139 75.977577,60.814194 
	C75.996262,52.678143 75.989304,44.542038 76.000023,36.405960 
	C76.001961,34.935970 76.895470,34.378845 78.232986,34.337517 
	C82.050789,34.219536 85.905434,34.015598 89.590897,35.201008 
	C94.948242,36.924168 97.430519,44.182720 93.372337,48.122280 
	C90.145714,51.254601 91.227211,53.366062 92.813141,56.207172 
	C93.782059,57.942959 94.636604,59.750832 95.421150,61.578430 
	C95.954224,62.820213 94.903496,62.856495 93.721390,63.003609 
z"/>
<path fill="#F8FBFE" opacity="1.000000" stroke="none" 
	d="
M80.873985,42.172546 
	C80.597435,39.230087 81.519783,37.807487 84.216324,38.251968 
	C86.643806,38.652100 89.414818,38.720695 90.004440,41.947197 
	C90.466980,44.478313 89.813560,46.624790 87.225975,47.703163 
	C82.980240,49.472569 80.952271,47.829288 80.873985,42.172546 
z"/>
</svg>