<svg version="1.1" id="Layer_1" xmlns="http://www.w3.org/2000/svg" xmlns:xlink="http://www.w3.org/1999/xlink" x="0px" y="0px"
	 width="100%" viewBox="0 0 500 500" enable-background="new 0 0 500 500" xml:space="preserve">
<path fill="#274472" opacity="1.000000" stroke="none" 
	d="
M1.349212,260.341614 
	C1.000000,253.645599 1.000000,247.291214 1.000000,240.468414 
	C2.457787,238.076920 4.542069,237.701355 6.770461,237.615234 
	C9.766740,237.499420 12.763407,237.519516 15.760050,237.519302 
	C84.857193,237.514557 153.954346,237.520615 223.051483,237.513184 
	C235.554504,237.511841 237.483719,235.657410 237.493286,223.036987 
	C237.546555,152.774384 237.488846,82.511711 237.568802,12.249146 
	C237.572845,8.695480 236.627243,4.863318 239.656464,1.351338 
	C325.594543,1.000000 411.189148,1.030671 496.783478,0.895549 
	C500.470123,0.889729 501.096252,1.754607 501.091370,5.276598 
	C500.974060,89.871834 501.000000,174.467285 501.000000,259.531342 
	C499.539917,261.923523 497.453125,262.299133 495.223419,262.385437 
	C492.224518,262.501465 489.225189,262.480591 486.225891,262.480804 
	C416.901154,262.485321 347.576416,262.480072 278.251678,262.486176 
	C265.487183,262.487305 264.487518,263.469116 264.486450,276.022095 
	C264.480652,345.013550 264.480621,414.004974 264.486481,482.996429 
	C264.487549,495.534851 265.486237,496.512421 278.270294,496.513947 
	C348.761566,496.522430 419.252838,496.493744 489.744019,496.568604 
	C493.301819,496.572388 497.138184,495.626740 500.650818,498.658417 
	C500.588226,499.627075 501.972412,501.118225 500.002380,501.011475 
	C498.840240,500.948486 497.671967,501.000000 496.506439,501.000000 
	C332.835785,501.000000 169.165146,501.003876 5.494516,500.938141 
	C4.032845,500.937561 2.107008,502.091370 1.000000,499.500000 
	C2.338313,497.271484 4.193470,496.742126 6.276898,496.642303 
	C9.275224,496.498657 12.274055,496.520111 15.272943,496.519867 
	C84.758560,496.514282 154.244186,496.520020 223.729797,496.513947 
	C236.523666,496.512817 237.512527,495.545410 237.513565,483.005585 
	C237.519302,414.019867 237.520004,345.034149 237.513046,276.048431 
	C237.511780,263.577423 236.401077,262.488281 223.706390,262.486572 
	C153.220978,262.476990 82.735558,262.506287 12.250214,262.431427 
	C8.694209,262.427673 4.859978,263.371887 1.349212,260.341614 
z"/>
<path fill="#FF304F" opacity="1.000000" stroke="none" 
	d="
M501.000000,498.531342 
	C423.521912,499.000000 346.043640,498.936707 268.566071,499.139130 
	C263.270599,499.152954 262.382141,497.540039 262.391235,492.733490 
	C262.533813,417.421722 262.539825,342.109497 262.380646,266.797791 
	C262.370148,261.821808 263.498657,260.354065 268.687561,260.366669 
	C343.499298,260.548462 418.311615,260.492462 493.123810,260.484650 
	C495.454254,260.484406 497.784698,260.389038 500.557556,260.169006 
	C501.000000,339.354218 501.000000,418.708466 501.000000,498.531342 
z"/>
<path fill="#C3E0E5" opacity="1.000000" stroke="none" 
	d="
M1.000000,260.468658 
	C3.255065,260.900879 5.615614,260.473816 7.923230,260.474609 
	C82.750786,260.500244 157.578354,260.487671 232.405914,260.507751 
	C240.260788,260.509857 239.491943,259.641205 239.493713,267.317596 
	C239.511032,342.478455 239.456650,417.639435 239.613403,492.799988 
	C239.623611,497.692108 238.622284,499.148041 233.419327,499.134888 
	C156.259033,498.939423 79.098099,499.000000 1.468657,499.000000 
	C1.000000,419.645782 1.000000,340.291534 1.000000,260.468658 
z"/>
<path fill="#30F15B" opacity="1.000000" stroke="none" 
	d="
M239.531342,1.000000 
	C239.848068,3.481410 239.564255,5.962776 239.563416,8.444238 
	C239.539520,78.580124 239.550003,148.716019 239.531860,218.851913 
	C239.530563,223.839401 239.137970,228.856201 239.215912,233.802734 
	C239.298294,239.029724 237.215378,239.631805 232.791550,239.625061 
	C158.157791,239.511429 83.523834,239.542511 8.889913,239.551208 
	C6.560007,239.551483 4.230114,239.655396 1.450108,239.855499 
	C1.000000,161.738403 1.033573,83.476730 0.895109,5.215376 
	C0.888582,1.526454 1.757698,0.903248 5.277166,0.908642 
	C83.205536,1.028073 161.134125,1.000000 239.531342,1.000000 
z"/>
</svg>