<svg version="1.1" id="Layer_1" xmlns="http://www.w3.org/2000/svg" xmlns:xlink="http://www.w3.org/1999/xlink" x="0px" y="0px"
	 width="100%" viewBox="0 0 1280 1280" enable-background="new 0 0 1280 1280" xml:space="preserve">
<path fill="#4DC4DA" opacity="1.000000" stroke="none" 
	d="
M600.000000,1.000008 
	C665.354248,1.000000 730.708435,1.000000 796.459717,1.335170 
	C795.513428,3.337975 794.310547,5.145896 792.806030,6.652662 
	C757.842102,41.669884 722.845459,76.654472 687.854919,111.645081 
	C609.626831,189.873260 531.381897,268.084564 453.221741,346.380585 
	C449.433441,350.175446 446.390411,354.714264 442.607666,359.020813 
	C440.581696,359.445251 438.951935,359.775848 437.314514,360.062744 
	C403.680237,365.955994 370.485809,373.446198 338.527893,385.860504 
	C331.309479,388.664551 326.836548,392.996643 323.709564,400.064087 
	C310.778656,429.289856 302.312531,459.820984 296.015198,491.034973 
	C289.687073,522.401428 286.292297,554.147583 283.494049,586.156738 
	C283.287109,587.943176 283.387451,589.581726 283.376953,591.658203 
	C283.127991,596.065491 282.989868,600.034973 282.612183,604.078369 
	C282.289429,604.785706 282.206268,605.419006 282.081970,606.482544 
	C282.047882,609.211914 282.054901,611.511169 282.149170,614.015808 
	C282.370514,614.489319 282.540680,614.732239 282.701874,615.217957 
	C282.598145,615.657288 282.539337,615.828674 282.186768,616.222046 
	C281.594879,617.868713 280.851898,619.366211 281.071411,620.705933 
	C282.402863,628.831177 278.761902,634.083557 273.031830,639.784485 
	C184.144730,728.219421 95.555145,816.953369 6.858008,905.579285 
	C5.144207,907.291870 2.963101,908.536865 0.999993,910.000000 
	C1.000000,806.979126 1.000000,703.958191 1.366566,600.459595 
	C3.721249,598.588806 5.969581,597.455994 7.660574,595.765686 
	C203.674652,399.829956 399.647339,203.852753 595.622131,7.877695 
	C596.447021,7.052798 597.462463,6.342269 598.048157,5.372523 
	C598.867065,4.016652 599.364868,2.466847 600.000000,1.000008 
z"/>
<path fill="#4CC6CF" opacity="1.000000" stroke="none" 
	d="
M0.999993,910.468628 
	C2.963101,908.536865 5.144207,907.291870 6.858008,905.579285 
	C95.555145,816.953369 184.144730,728.219421 273.031830,639.784485 
	C278.761902,634.083557 282.402863,628.831177 281.071411,620.705933 
	C280.851898,619.366211 281.594879,617.868713 282.231079,616.631836 
	C282.749207,638.235596 282.735382,659.655579 283.182068,681.066040 
	C283.450287,693.921204 284.051117,706.796509 285.216003,719.597839 
	C286.255646,731.022888 287.829651,742.442688 289.953674,753.716736 
	C294.631409,778.545471 298.753326,803.554504 305.106567,827.968323 
	C310.259003,847.767822 318.182770,866.862183 325.216827,886.145447 
	C327.092682,891.287842 331.651001,894.223633 336.849976,895.977234 
	C342.287201,897.811218 347.689240,899.749756 353.278198,901.923706 
	C355.633545,904.059387 356.284027,905.660645 353.285126,907.571533 
	C351.357239,908.799927 349.831085,910.678772 348.184235,912.325500 
	C234.533539,1025.965210 120.892349,1139.614502 7.212465,1253.225098 
	C5.380595,1255.055786 3.081203,1256.418701 0.999999,1258.000000 
	C1.000000,1142.312500 1.000000,1026.624878 0.999993,910.468628 
z"/>
<path fill="#49CDB5" opacity="1.000000" stroke="none" 
	d="
M1281.000000,724.000000 
	C1281.000000,801.020874 1281.000000,878.041809 1280.664795,955.602905 
	C1278.897705,957.250854 1277.324219,958.216858 1276.054077,959.486450 
	C1170.465088,1065.031738 1064.896851,1170.597778 959.363586,1276.198853 
	C958.003235,1277.560181 957.110840,1279.389282 956.000000,1281.000000 
	C878.979126,1281.000000 801.958191,1281.000000 724.478638,1280.634277 
	C725.411682,1278.280640 726.542664,1276.031982 728.232239,1274.341675 
	C910.168579,1092.326416 1092.146851,910.353149 1274.122803,728.377502 
	C1274.947266,727.552979 1275.657593,726.538452 1276.626953,725.953064 
	C1277.983276,725.134094 1279.532959,724.635559 1281.000000,724.000000 
z"/>
<path fill="#4ACBBE" opacity="1.000000" stroke="none" 
	d="
M1281.000000,451.999969 
	C1281.000000,501.687561 1281.000000,551.375122 1280.658813,601.580322 
	C1278.894165,603.216125 1277.337036,604.200684 1276.066162,605.471375 
	C1052.466919,829.031311 828.886902,1052.610474 605.339661,1276.222412 
	C603.986877,1277.575439 603.102905,1279.397095 602.000000,1281.000000 
	C564.645752,1281.000000 527.291565,1281.000000 489.540253,1280.664795 
	C490.603577,1278.544922 491.922546,1276.618896 493.544678,1274.995972 
	C570.410767,1198.083252 647.303162,1121.196899 724.192444,1044.307495 
	C762.225037,1006.274841 800.282959,968.267517 838.221436,930.141296 
	C840.321777,928.030640 841.430969,924.933716 843.346924,922.191101 
	C850.288147,921.098328 856.929688,920.343872 863.467346,919.060120 
	C870.779053,917.624451 878.111938,916.089600 885.233093,913.929993 
	C905.564392,907.764282 925.787842,901.242981 946.065491,894.899353 
	C951.356873,893.244019 955.004517,889.914246 956.860962,884.695129 
	C964.877563,862.157532 973.610046,839.837891 980.599182,816.985352 
	C984.805725,803.231201 986.510986,788.681152 988.925171,774.418457 
	C991.253113,760.664795 993.047791,746.820862 995.432190,732.990356 
	C997.894226,731.440247 1000.254761,730.170532 1002.070984,728.355896 
	C1092.775146,637.734985 1183.425049,547.059875 1274.147339,456.457123 
	C1276.033691,454.573181 1278.698364,453.468292 1281.000000,451.999969 
z"/>
<path fill="#4CC6CF" opacity="1.000000" stroke="none" 
	d="
M988.000000,1.000005 
	C1065.687622,1.000000 1143.375122,1.000000 1221.459717,1.335156 
	C1220.278687,3.572595 1218.842407,5.616390 1217.102539,7.356892 
	C1101.733398,122.770752 986.339417,238.159653 870.953918,353.557129 
	C869.425720,355.085449 868.053528,356.775116 866.476135,358.247681 
	C864.730835,359.877075 862.833008,361.343048 860.749451,362.908905 
	C860.330261,362.910736 860.163269,362.883820 859.910339,362.609802 
	C859.162048,362.361206 858.499573,362.359772 857.431885,362.294800 
	C827.113831,358.203339 797.256714,353.678528 767.268799,350.321014 
	C747.050415,348.057312 726.658081,347.246338 706.323669,346.156250 
	C692.715881,345.426788 679.075195,345.181610 665.445679,345.018982 
	C647.632935,344.806396 629.816711,344.889435 612.182495,344.507843 
	C614.078125,343.780457 615.788086,343.083374 617.509399,343.053802 
	C624.838989,342.927795 632.192017,342.662781 639.497498,343.100250 
	C645.882507,343.482605 650.314331,341.629700 655.028442,336.805969 
	C683.792969,307.372650 713.064819,278.435150 742.167664,249.332382 
	C822.642029,168.857895 903.125000,88.391876 983.538696,7.856749 
	C985.423889,5.968694 986.530334,3.303003 988.000000,1.000005 
z"/>
<path fill="#4EC2DF" opacity="1.000000" stroke="none" 
	d="
M599.538818,1.000008 
	C599.364868,2.466847 598.867065,4.016652 598.048157,5.372523 
	C597.462463,6.342269 596.447021,7.052798 595.622131,7.877695 
	C399.647339,203.852753 203.674652,399.829956 7.660574,595.765686 
	C5.969581,597.455994 3.721249,598.588806 1.366566,599.990967 
	C1.000000,548.974182 1.000000,497.948334 1.365666,446.451355 
	C3.718604,444.589081 5.966350,443.458588 7.656093,441.769775 
	C152.339279,297.166779 296.979340,152.520630 441.622314,7.877434 
	C442.446808,7.052932 443.461517,6.342555 444.046875,5.373265 
	C444.865967,4.016975 445.364380,2.467063 446.000000,1.000002 
	C497.025848,1.000000 548.051697,1.000000 599.538818,1.000008 
z"/>
<path fill="#4BC8C9" opacity="1.000000" stroke="none" 
	d="
M861.001587,362.880188 
	C862.833008,361.343048 864.730835,359.877075 866.476135,358.247681 
	C868.053528,356.775116 869.425720,355.085449 870.953918,353.557129 
	C986.339417,238.159653 1101.733398,122.770752 1217.102539,7.356892 
	C1218.842407,5.616390 1220.278687,3.572595 1221.928345,1.335156 
	C1241.630615,1.000000 1261.261230,1.000000 1281.000000,1.000000 
	C1281.000000,60.687519 1281.000000,120.375099 1280.664795,180.602951 
	C1278.544556,182.604187 1276.617676,183.923523 1274.994141,185.546280 
	C1180.831909,279.663147 1086.694702,373.804962 992.558838,467.948212 
	C991.263855,469.243286 989.696716,470.405457 988.818909,471.949371 
	C987.017761,475.117432 984.883545,474.985840 982.152954,472.887878 
	C975.696533,446.208099 968.050842,420.295380 955.892273,395.972595 
	C954.327576,392.842499 951.299438,389.415558 948.165833,388.271118 
	C932.243530,382.456146 916.193787,376.902222 899.931335,372.134888 
	C887.148865,368.387756 873.992065,365.917572 861.001587,362.880188 
z"/>
<path fill="#4ACCBB" opacity="1.000000" stroke="none" 
	d="
M602.462646,1281.000000 
	C603.102905,1279.397095 603.986877,1277.575439 605.339661,1276.222412 
	C828.886902,1052.610474 1052.466919,829.031311 1276.066162,605.471375 
	C1277.337036,604.200684 1278.894165,603.216125 1280.658813,602.048950 
	C1281.000000,642.358215 1281.000000,682.716492 1281.000000,723.537354 
	C1279.532959,724.635559 1277.983276,725.134094 1276.626953,725.953064 
	C1275.657593,726.538452 1274.947266,727.552979 1274.122803,728.377502 
	C1092.146851,910.353149 910.168579,1092.326416 728.232239,1274.341675 
	C726.542664,1276.031982 725.411682,1278.280640 724.009949,1280.634277 
	C683.641785,1281.000000 643.283508,1281.000000 602.462646,1281.000000 
z"/>
<path fill="#4BC8C9" opacity="1.000000" stroke="none" 
	d="
M0.999999,1258.468750 
	C3.081203,1256.418701 5.380595,1255.055786 7.212465,1253.225098 
	C120.892349,1139.614502 234.533539,1025.965210 348.184235,912.325500 
	C349.831085,910.678772 351.357239,908.799927 353.285126,907.571533 
	C356.284027,905.660645 355.633545,904.059387 353.661163,901.986511 
	C376.423981,907.506287 398.734406,914.603577 421.584808,918.655884 
	C453.822662,924.373047 486.460083,927.836853 519.009583,932.426819 
	C519.333313,932.488708 519.574158,932.387817 520.114136,932.231812 
	C521.608582,932.378479 522.803894,932.580200 523.797485,933.058350 
	C520.357910,936.429260 517.059265,939.462952 513.891418,942.627625 
	C481.835907,974.652344 449.801575,1006.698425 417.761444,1038.738525 
	C339.310181,1117.189819 260.850189,1195.632568 182.459869,1274.144653 
	C180.575180,1276.032349 179.469177,1278.697510 177.999985,1281.000000 
	C118.999977,1281.000000 59.999954,1281.000000 1.000000,1281.000000 
	C1.000000,1273.572021 1.000000,1266.254761 0.999999,1258.468750 
z"/>
<path fill="#4DC5D5" opacity="1.000000" stroke="none" 
	d="
M987.531372,1.000005 
	C986.530334,3.303003 985.423889,5.968694 983.538696,7.856749 
	C903.125000,88.391876 822.642029,168.857895 742.167664,249.332382 
	C713.064819,278.435150 683.792969,307.372650 655.028442,336.805969 
	C650.314331,341.629700 645.882507,343.482605 639.497498,343.100250 
	C632.192017,342.662781 624.838989,342.927795 617.509399,343.053802 
	C615.788086,343.083374 614.078125,343.780457 611.720642,344.571655 
	C606.431824,345.078339 601.785339,345.183807 596.806274,345.017822 
	C590.557617,345.056061 584.641663,345.365784 578.356262,345.798981 
	C562.596497,346.953705 547.191711,347.809296 531.819580,349.063873 
	C515.305542,350.411652 498.801422,351.945587 482.331909,353.752716 
	C469.191101,355.194611 456.108673,357.168732 443.000336,358.906647 
	C446.390411,354.714264 449.433441,350.175446 453.221741,346.380585 
	C531.381897,268.084564 609.626831,189.873260 687.854919,111.645081 
	C722.845459,76.654472 757.842102,41.669884 792.806030,6.652662 
	C794.310547,5.145896 795.513428,3.337975 796.928406,1.335170 
	C860.354248,1.000000 923.708435,1.000000 987.531372,1.000005 
z"/>
<path fill="#4BC9C4" opacity="1.000000" stroke="none" 
	d="
M178.468643,1281.000000 
	C179.469177,1278.697510 180.575180,1276.032349 182.459869,1274.144653 
	C260.850189,1195.632568 339.310181,1117.189819 417.761444,1038.738525 
	C449.801575,1006.698425 481.835907,974.652344 513.891418,942.627625 
	C517.059265,939.462952 520.357910,936.429260 524.249756,933.024292 
	C542.949158,933.892151 560.994507,935.070679 579.166565,936.518188 
	C580.512207,936.641785 581.731140,936.496399 583.359985,936.419800 
	C585.566101,936.642456 587.360901,936.905334 589.159058,936.931824 
	C598.441406,937.068481 607.724548,937.144592 617.195801,937.569580 
	C618.270813,938.254822 619.156189,938.919983 620.044495,938.924011 
	C635.457947,938.993652 650.872070,939.024292 666.284851,938.908691 
	C667.525940,938.899414 668.758606,937.763916 670.392822,937.087646 
	C671.861450,937.057373 672.932434,937.091125 674.103516,937.400696 
	C675.134949,937.478699 676.066284,937.280884 677.461182,937.012085 
	C683.603882,936.930908 689.283020,936.920776 695.292725,937.147644 
	C700.167175,937.564148 704.795898,940.064087 709.567322,936.847107 
	C711.278809,936.595215 712.640198,936.384094 713.884277,936.481079 
	C703.231873,946.638916 692.466553,956.255493 682.208130,966.385498 
	C658.623596,989.674927 635.285828,1013.214233 611.847900,1036.652100 
	C532.700867,1115.799194 453.545135,1194.937622 374.459015,1274.145630 
	C372.574524,1276.032959 371.468903,1278.697754 370.000000,1281.000000 
	C306.312439,1281.000000 242.624878,1281.000000 178.468643,1281.000000 
z"/>
<path fill="#4BCAC3" opacity="1.000000" stroke="none" 
	d="
M982.279297,473.227173 
	C984.883545,474.985840 987.017761,475.117432 988.818909,471.949371 
	C989.696716,470.405457 991.263855,469.243286 992.558838,467.948212 
	C1086.694702,373.804962 1180.831909,279.663147 1274.994141,185.546280 
	C1276.617676,183.923523 1278.544556,182.604187 1280.664795,181.071609 
	C1281.000000,244.020889 1281.000000,307.041779 1280.664795,370.602936 
	C1278.544922,372.603607 1276.618896,373.922546 1274.995850,375.544708 
	C1186.160400,464.334503 1097.343384,553.142761 1008.570190,641.994751 
	C1005.816711,644.750549 1003.543091,647.985840 1001.031372,650.641968 
	C1000.683838,649.193359 1000.350647,648.100342 999.935913,646.552063 
	C999.909241,642.395081 999.964172,638.693420 1000.248718,634.648315 
	C1000.290588,626.521484 1000.102722,618.737976 999.944519,610.531250 
	C998.970032,596.029175 998.009705,581.946960 996.944946,567.872620 
	C996.337646,559.845276 995.897461,551.783630 994.785278,543.820801 
	C992.790161,529.536133 990.344849,515.314392 988.515381,501.042419 
	C989.796204,500.163971 990.649353,499.309387 991.502502,498.454834 
	C990.098511,498.051788 988.694519,497.648712 987.169312,496.861694 
	C986.789551,494.881805 986.531067,493.285828 986.589722,491.897675 
	C987.990601,492.602692 989.074402,493.099884 990.158203,493.597076 
	C990.412354,493.197601 990.666565,492.798126 990.920715,492.398682 
	C989.433899,490.319092 989.554993,486.736206 985.203979,486.965912 
	C985.060974,486.134949 985.030884,485.566895 985.368530,484.973206 
	C986.671936,483.739410 988.418640,482.507019 988.383423,481.327881 
	C988.295654,478.390259 986.000305,477.772308 983.253906,477.855164 
	C982.835449,476.088898 982.557373,474.658051 982.279297,473.227173 
z"/>
<path fill="#4FC1E5" opacity="1.000000" stroke="none" 
	d="
M0.999995,328.000000 
	C1.000000,219.072662 1.000000,110.145332 1.000000,1.000000 
	C109.688004,1.000000 218.376144,1.000000 327.522247,1.365663 
	C326.589783,3.717885 325.459137,5.963864 323.771515,7.653617 
	C255.375443,76.137337 186.929108,144.570862 118.489197,213.010803 
	C81.383209,250.116791 44.293133,287.238739 7.118342,324.275665 
	C5.474112,325.913788 3.057059,326.776215 0.999995,328.000000 
z"/>
<path fill="#48CFAF" opacity="1.000000" stroke="none" 
	d="
M956.468628,1281.000000 
	C957.110840,1279.389282 958.003235,1277.560181 959.363586,1276.198853 
	C1064.896851,1170.597778 1170.465088,1065.031738 1276.054077,959.486450 
	C1277.324219,958.216858 1278.897705,957.250854 1280.664795,956.071533 
	C1281.000000,1064.260376 1281.000000,1172.520752 1281.000000,1281.000000 
	C1172.979248,1281.000000 1064.958252,1281.000000 956.468628,1281.000000 
z"/>
<path fill="#4EC2E1" opacity="1.000000" stroke="none" 
	d="
M0.999995,328.462646 
	C3.057059,326.776215 5.474112,325.913788 7.118342,324.275665 
	C44.293133,287.238739 81.383209,250.116791 118.489197,213.010803 
	C186.929108,144.570862 255.375443,76.137337 323.771515,7.653617 
	C325.459137,5.963864 326.589783,3.717885 327.990112,1.365663 
	C367.024902,1.000000 406.049805,1.000000 445.537354,1.000002 
	C445.364380,2.467063 444.865967,4.016975 444.046875,5.373265 
	C443.461517,6.342555 442.446808,7.052932 441.622314,7.877434 
	C296.979340,152.520630 152.339279,297.166779 7.656093,441.769775 
	C5.966350,443.458588 3.718604,444.589081 1.365666,445.990112 
	C1.000000,406.975098 1.000000,367.950195 0.999995,328.462646 
z"/>
<path fill="#4ACAC0" opacity="1.000000" stroke="none" 
	d="
M370.468658,1281.000000 
	C371.468903,1278.697754 372.574524,1276.032959 374.459015,1274.145630 
	C453.545135,1194.937622 532.700867,1115.799194 611.847900,1036.652100 
	C635.285828,1013.214233 658.623596,989.674927 682.208130,966.385498 
	C692.466553,956.255493 703.231873,946.638916 714.305359,936.414368 
	C716.620422,935.715698 718.385254,935.220825 720.175842,935.096008 
	C730.736267,934.360046 741.302917,933.713684 751.866943,933.029663 
	C756.382202,932.737305 760.894226,932.389771 765.411499,932.134949 
	C770.030396,931.874390 774.679932,931.928528 779.268433,931.417664 
	C783.856201,930.906921 788.357483,929.606812 792.946289,929.121399 
	C799.676514,928.409546 806.493225,928.437256 813.194946,927.555481 
	C820.512939,926.592590 827.731689,924.893127 835.018494,923.660706 
	C836.354370,923.434753 837.808350,923.906921 839.415161,923.996704 
	C840.060303,923.613159 840.497986,923.289612 841.220825,922.715454 
	C842.004456,922.408508 842.502991,922.352234 843.001465,922.295898 
	C841.430969,924.933716 840.321777,928.030640 838.221436,930.141296 
	C800.282959,968.267517 762.225037,1006.274841 724.192444,1044.307495 
	C647.303162,1121.196899 570.410767,1198.083252 493.544678,1274.995972 
	C491.922546,1276.618896 490.603577,1278.544922 489.071594,1280.664795 
	C449.645782,1281.000000 410.291534,1281.000000 370.468658,1281.000000 
z"/>
<path fill="#4ACAC0" opacity="1.000000" stroke="none" 
	d="
M1001.045776,650.997559 
	C1003.543091,647.985840 1005.816711,644.750549 1008.570190,641.994751 
	C1097.343384,553.142761 1186.160400,464.334503 1274.995850,375.544708 
	C1276.618896,373.922546 1278.544922,372.603607 1280.664795,371.071594 
	C1281.000000,397.687561 1281.000000,424.375122 1281.000000,451.531311 
	C1278.698364,453.468292 1276.033691,454.573181 1274.147339,456.457123 
	C1183.425049,547.059875 1092.775146,637.734985 1002.070984,728.355896 
	C1000.254761,730.170532 997.894226,731.440247 995.389343,732.559937 
	C995.711365,723.919678 996.482239,715.687805 997.139832,707.446838 
	C998.107605,695.316589 998.994629,683.179871 1000.153931,670.702271 
	C1000.609741,663.904968 1000.827759,657.451294 1001.045776,650.997559 
z"/>
<path fill="#FCFEFE" opacity="1.000000" stroke="none" 
	d="
M999.916016,671.045898 
	C998.994629,683.179871 998.107605,695.316589 997.139832,707.446838 
	C996.482239,715.687805 995.711365,723.919678 995.033936,732.586121 
	C993.047791,746.820862 991.253113,760.664795 988.925171,774.418457 
	C986.510986,788.681152 984.805725,803.231201 980.599182,816.985352 
	C973.610046,839.837891 964.877563,862.157532 956.860962,884.695129 
	C955.004517,889.914246 951.356873,893.244019 946.065491,894.899353 
	C925.787842,901.242981 905.564392,907.764282 885.233093,913.929993 
	C878.111938,916.089600 870.779053,917.624451 863.467346,919.060120 
	C856.929688,920.343872 850.288147,921.098328 843.346985,922.191162 
	C842.502991,922.352234 842.004456,922.408508 841.015076,922.648621 
	C840.085449,923.240601 839.646606,923.648682 839.207825,924.056824 
	C837.808350,923.906921 836.354370,923.434753 835.018494,923.660706 
	C827.731689,924.893127 820.512939,926.592590 813.194946,927.555481 
	C806.493225,928.437256 799.676514,928.409546 792.946289,929.121399 
	C788.357483,929.606812 783.856201,930.906921 779.268433,931.417664 
	C774.679932,931.928528 770.030396,931.874390 765.411499,932.134949 
	C760.894226,932.389771 756.382202,932.737305 751.866943,933.029663 
	C741.302917,933.713684 730.736267,934.360046 720.175842,935.096008 
	C718.385254,935.220825 716.620422,935.715698 714.422607,936.106201 
	C712.640198,936.384094 711.278809,936.595215 709.286682,936.511597 
	C704.091309,936.448181 699.526733,936.679382 694.962158,936.910645 
	C689.283020,936.920776 683.603882,936.930908 677.088562,936.956421 
	C675.502747,937.022827 674.753052,937.073853 674.003418,937.124878 
	C672.932434,937.091125 671.861450,937.057373 670.008667,937.029907 
	C651.820435,937.104675 634.413940,937.173218 617.007446,937.241760 
	C607.724548,937.144592 598.441406,937.068481 589.159058,936.931824 
	C587.360901,936.905334 585.566101,936.642456 582.973694,936.347046 
	C581.131714,936.220032 580.085815,936.234619 579.039917,936.249207 
	C560.994507,935.070679 542.949158,933.892151 524.451416,932.747803 
	C522.803894,932.580200 521.608582,932.378479 519.893311,932.178772 
	C519.373230,932.180786 518.926697,932.263977 518.926697,932.263977 
	C486.460083,927.836853 453.822662,924.373047 421.584808,918.655884 
	C398.734406,914.603577 376.423981,907.506287 353.489624,901.705322 
	C347.689240,899.749756 342.287201,897.811218 336.849976,895.977234 
	C331.651001,894.223633 327.092682,891.287842 325.216827,886.145447 
	C318.182770,866.862183 310.259003,847.767822 305.106567,827.968323 
	C298.753326,803.554504 294.631409,778.545471 289.953674,753.716736 
	C287.829651,742.442688 286.255646,731.022888 285.216003,719.597839 
	C284.051117,706.796509 283.450287,693.921204 283.182068,681.066040 
	C282.735382,659.655579 282.749207,638.235596 282.524780,616.409790 
	C282.539337,615.828674 282.598145,615.657288 282.744110,614.966797 
	C282.574860,614.235168 282.318420,614.022766 282.061981,613.810425 
	C282.054901,611.511169 282.047882,609.211914 282.340637,606.328125 
	C282.710876,605.163818 282.781311,604.584106 282.851746,604.004395 
	C282.989868,600.034973 283.127991,596.065491 283.480530,591.291565 
	C283.730438,588.994324 283.765869,587.501526 283.801300,586.008789 
	C286.292297,554.147583 289.687073,522.401428 296.015198,491.034973 
	C302.312531,459.820984 310.778656,429.289856 323.709564,400.064087 
	C326.836548,392.996643 331.309479,388.664551 338.527893,385.860504 
	C370.485809,373.446198 403.680237,365.955994 437.314514,360.062744 
	C438.951935,359.775848 440.581696,359.445251 442.607666,359.020813 
	C456.108673,357.168732 469.191101,355.194611 482.331909,353.752716 
	C498.801422,351.945587 515.305542,350.411652 531.819580,349.063873 
	C547.191711,347.809296 562.596497,346.953705 578.790771,345.884888 
	C585.442688,345.661346 591.290771,345.475311 597.138855,345.289307 
	C601.785339,345.183807 606.431824,345.078339 611.540161,344.909058 
	C629.816711,344.889435 647.632935,344.806396 665.445679,345.018982 
	C679.075195,345.181610 692.715881,345.426788 706.323669,346.156250 
	C726.658081,347.246338 747.050415,348.057312 767.268799,350.321014 
	C797.256714,353.678528 827.113831,358.203339 857.634216,362.514923 
	C858.826599,362.818054 859.411377,362.837494 859.996216,362.856934 
	C860.163269,362.883820 860.330261,362.910736 860.749451,362.908905 
	C873.992065,365.917572 887.148865,368.387756 899.931335,372.134888 
	C916.193787,376.902222 932.243530,382.456146 948.165833,388.271118 
	C951.299438,389.415558 954.327576,392.842499 955.892273,395.972595 
	C968.050842,420.295380 975.696533,446.208099 982.152954,472.887878 
	C982.557373,474.658051 982.835449,476.088898 983.287476,478.176025 
	C983.742676,479.864838 984.023926,480.897369 984.302246,482.243896 
	C984.374878,482.753113 984.450439,482.948303 984.540894,483.466461 
	C984.704102,484.192535 984.852417,484.595703 985.000732,484.998840 
	C985.030884,485.566895 985.060974,486.134949 985.224487,487.299835 
	C985.662781,489.161072 985.967712,490.425446 986.272583,491.689850 
	C986.531067,493.285828 986.789551,494.881805 987.174683,497.190704 
	C987.563416,498.957886 987.825562,500.012085 988.087708,501.066315 
	C990.344849,515.314392 992.790161,529.536133 994.785278,543.820801 
	C995.897461,551.783630 996.337646,559.845276 996.944946,567.872620 
	C998.009705,581.946960 998.970032,596.029175 999.623169,610.769409 
	C999.521118,619.284424 999.770081,627.138062 1000.019043,634.991699 
	C999.964172,638.693420 999.909241,642.395081 999.872803,647.013062 
	C999.602600,652.805481 999.154541,657.679382 999.086365,662.558533 
	C999.046936,665.383240 999.619080,668.216492 999.916016,671.045898 
M974.296753,590.246460 
	C974.195435,589.165527 974.094055,588.084656 974.080750,586.201111 
	C973.982605,585.132324 973.884521,584.063477 973.889343,582.201050 
	C973.662231,580.106873 973.435120,578.012695 973.291382,575.072815 
	C973.141907,573.380798 972.992493,571.688721 972.920715,569.166321 
	C972.309021,564.567322 971.735779,559.962830 971.078979,555.370300 
	C968.047791,534.175110 965.612915,512.870789 961.792664,491.818237 
	C956.852783,464.595917 949.046936,438.101501 937.774414,412.750641 
	C936.802185,410.564240 934.772522,407.990417 932.673645,407.299896 
	C917.530579,402.318054 902.242981,397.775391 886.412354,392.851929 
	C885.994324,392.789764 885.576355,392.727631 884.521240,392.292206 
	C883.295715,392.097443 882.070129,391.902679 880.273743,391.299866 
	C878.894897,391.027069 877.516052,390.754272 875.679382,390.276581 
	C875.512146,390.274475 875.344971,390.272400 874.586487,390.048035 
	C872.465393,389.845032 870.304626,389.834167 868.230103,389.405609 
	C859.488770,387.599670 850.825562,385.362732 842.035706,383.856323 
	C829.002991,381.622803 815.942139,379.302429 802.795288,378.037994 
	C774.633667,375.329468 746.416870,373.175018 718.206299,371.006927 
	C709.121582,370.308746 699.986755,370.240051 690.872681,369.951569 
	C677.611328,369.531769 664.347961,369.173798 650.146484,368.616638 
	C643.731323,368.674500 637.316223,368.732361 630.005981,368.647827 
	C626.671082,368.730255 623.336182,368.812714 619.071411,368.758911 
	C608.119141,369.152771 597.167297,369.558838 586.214478,369.937134 
	C574.900574,370.327911 563.582153,370.610718 552.272583,371.100342 
	C546.312378,371.358398 540.352783,371.822266 534.418762,372.440582 
	C528.823669,373.023590 523.279968,374.119202 517.681274,374.642059 
	C512.246521,375.149567 506.742706,374.957001 501.319611,375.540314 
	C494.327789,376.292358 487.397705,377.599396 480.420319,378.508392 
	C467.443115,380.198975 454.406006,381.484100 441.478821,383.486725 
	C430.466705,385.192688 419.425964,387.105316 408.661041,389.929382 
	C389.640472,394.919281 370.833984,400.721527 351.905365,406.068451 
	C347.508118,407.310638 345.158142,410.019226 343.384155,414.196747 
	C330.556824,444.403809 322.353333,475.912842 317.079651,508.183563 
	C314.163086,526.030701 312.310913,544.051880 309.774597,562.765076 
	C309.557068,565.509033 309.339539,568.252930 308.963043,571.701477 
	C308.872803,572.418091 308.782562,573.134644 308.144714,574.489990 
	C308.134064,577.992065 308.123413,581.494202 307.951050,585.876099 
	C307.313141,603.978271 306.355621,622.076660 306.141998,640.183838 
	C305.981537,653.784424 306.776764,667.396179 307.037384,681.881287 
	C308.030701,697.160278 308.432831,712.506958 310.172729,727.700439 
	C312.175964,745.193115 314.999695,762.615479 318.113525,779.952209 
	C323.597900,810.487366 331.484161,840.381042 344.041229,868.871155 
	C344.916382,870.856628 346.346954,873.500610 348.090118,874.060303 
	C365.323303,879.593628 382.677185,884.751160 400.612549,890.285034 
	C401.048553,890.385376 401.484558,890.485779 402.519806,890.876099 
	C403.612488,891.067810 404.705200,891.259521 406.476410,891.775940 
	C408.245239,892.198181 410.005096,892.662964 411.784210,893.036194 
	C440.376434,899.035339 469.161407,903.841187 498.296783,906.197937 
	C525.095154,908.365601 551.904785,910.471191 578.741882,912.052917 
	C594.461548,912.979309 610.244629,912.827698 626.808594,913.322998 
	C628.179016,913.282959 629.549377,913.242920 631.857849,913.375549 
	C638.270142,913.317749 644.682495,913.259949 652.010498,913.353027 
	C661.341431,913.187500 670.672363,913.021973 680.933350,912.971741 
	C687.957214,912.652466 694.981018,912.333191 702.670410,912.118652 
	C703.113953,912.063538 703.557434,912.008423 704.932678,912.057800 
	C716.501221,911.406982 728.082825,910.930847 739.635010,910.062683 
	C755.326477,908.883362 771.032959,907.735596 786.663940,905.964905 
	C803.935547,904.008423 821.186768,901.719788 838.343994,898.940552 
	C869.641968,893.870483 900.462280,886.766052 930.301575,875.792847 
	C934.306458,874.320129 936.786865,872.075012 938.495178,868.012939 
	C951.815918,836.339050 960.524902,803.436035 965.131042,769.438049 
	C967.636353,750.946167 969.806458,732.407959 972.015930,713.877380 
	C972.599854,708.980530 972.768799,704.034241 973.127930,699.110657 
	C973.714111,691.074036 974.299866,683.037354 975.005371,674.093689 
	C975.196350,670.059692 975.387390,666.025635 975.761108,661.071289 
	C975.714661,648.050842 975.668213,635.030396 975.454956,621.203064 
	C975.256714,614.800964 975.058533,608.398804 974.967529,601.322937 
	C974.683960,600.529968 974.400391,599.737061 974.039429,598.122009 
	C973.989990,596.748230 973.940552,595.374390 974.017700,593.269287 
	C974.069946,592.531067 974.122253,591.792847 974.296753,590.246460 
z"/>
<path fill="#4CC6CF" opacity="1.000000" stroke="none" 
	d="
M283.494049,586.156738 
	C283.765869,587.501526 283.730438,588.994324 283.591370,590.853638 
	C283.387451,589.581726 283.287109,587.943176 283.494049,586.156738 
z"/>
<path fill="#4CC6CF" opacity="1.000000" stroke="none" 
	d="
M282.612183,604.078369 
	C282.781311,604.584106 282.710876,605.163818 282.381775,605.897949 
	C282.206268,605.419006 282.289429,604.785706 282.612183,604.078369 
z"/>
<path fill="#4CC6CF" opacity="1.000000" stroke="none" 
	d="
M282.149170,614.015808 
	C282.318420,614.022766 282.574860,614.235168 282.789062,614.698730 
	C282.540680,614.732239 282.370514,614.489319 282.149170,614.015808 
z"/>
<path fill="#4BC8C9" opacity="1.000000" stroke="none" 
	d="
M859.910339,362.609802 
	C859.411377,362.837494 858.826599,362.818054 858.039429,362.578491 
	C858.499573,362.359772 859.162048,362.361206 859.910339,362.609802 
z"/>
<path fill="#4BC9C4" opacity="1.000000" stroke="none" 
	d="
M519.009583,932.426819 
	C518.926697,932.263977 519.373230,932.180786 519.594116,932.233887 
	C519.574158,932.387817 519.333313,932.488708 519.009583,932.426819 
z"/>
<path fill="#4CC6CF" opacity="1.000000" stroke="none" 
	d="
M596.806274,345.017822 
	C591.290771,345.475311 585.442688,345.661346 579.160156,345.761414 
	C584.641663,345.365784 590.557617,345.056061 596.806274,345.017822 
z"/>
<path fill="#4ACAC0" opacity="1.000000" stroke="none" 
	d="
M617.195801,937.569580 
	C634.413940,937.173218 651.820435,937.104675 669.611084,937.093933 
	C668.758606,937.763916 667.525940,938.899414 666.284851,938.908691 
	C650.872070,939.024292 635.457947,938.993652 620.044495,938.924011 
	C619.156189,938.919983 618.270813,938.254822 617.195801,937.569580 
z"/>
<path fill="#4ACAC0" opacity="1.000000" stroke="none" 
	d="
M695.292725,937.147644 
	C699.526733,936.679382 704.091309,936.448181 708.936523,936.552368 
	C704.795898,940.064087 700.167175,937.564148 695.292725,937.147644 
z"/>
<path fill="#32C3BA" opacity="1.000000" stroke="none" 
	d="
M579.166565,936.518188 
	C580.085815,936.234619 581.131714,936.220032 582.563843,936.278198 
	C581.731140,936.496399 580.512207,936.641785 579.166565,936.518188 
z"/>
<path fill="#4ACAC0" opacity="1.000000" stroke="none" 
	d="
M674.103516,937.400635 
	C674.753052,937.073853 675.502747,937.022827 676.625000,937.027405 
	C676.066284,937.280884 675.134949,937.478699 674.103516,937.400635 
z"/>
<path fill="#32C3BA" opacity="1.000000" stroke="none" 
	d="
M1000.153931,670.702271 
	C999.619080,668.216492 999.046936,665.383240 999.086365,662.558533 
	C999.154541,657.679382 999.602600,652.805481 999.954346,647.468384 
	C1000.350647,648.100342 1000.683838,649.193359 1001.031372,650.641968 
	C1000.827759,657.451294 1000.609741,663.904968 1000.153931,670.702271 
z"/>
<path fill="#32C3BA" opacity="1.000000" stroke="none" 
	d="
M1000.248779,634.648315 
	C999.770081,627.138062 999.521118,619.284424 999.593506,611.192627 
	C1000.102722,618.737976 1000.290588,626.521484 1000.248779,634.648315 
z"/>
<path fill="#4BC8C9" opacity="1.000000" stroke="none" 
	d="
M985.368530,484.973206 
	C984.852417,484.595703 984.704102,484.192535 984.689819,483.318756 
	C984.650940,482.542023 984.478088,482.235962 984.305176,481.929901 
	C984.023926,480.897369 983.742676,479.864838 983.427856,478.511414 
	C986.000305,477.772308 988.295654,478.390259 988.383423,481.327881 
	C988.418640,482.507019 986.671936,483.739410 985.368530,484.973206 
z"/>
<path fill="#4BC8C9" opacity="1.000000" stroke="none" 
	d="
M986.589722,491.897675 
	C985.967712,490.425446 985.662781,489.161072 985.337402,487.562744 
	C989.554993,486.736206 989.433899,490.319092 990.920715,492.398682 
	C990.666565,492.798126 990.412354,493.197601 990.158203,493.597076 
	C989.074402,493.099884 987.990601,492.602692 986.589722,491.897675 
z"/>
<path fill="#4BC8C9" opacity="1.000000" stroke="none" 
	d="
M988.515381,501.042419 
	C987.825562,500.012085 987.563416,498.957886 987.295898,497.574646 
	C988.694519,497.648712 990.098511,498.051788 991.502502,498.454834 
	C990.649353,499.309387 989.796204,500.163971 988.515381,501.042419 
z"/>
<path fill="#4ACBBE" opacity="1.000000" stroke="none" 
	d="
M839.415161,923.996704 
	C839.646606,923.648682 840.085449,923.240601 840.729980,922.899292 
	C840.497986,923.289612 840.060303,923.613159 839.415161,923.996704 
z"/>
<path fill="#4CC6CF" opacity="1.000000" stroke="none" 
	d="
M405.797913,891.451172 
	C404.705200,891.259521 403.612488,891.067810 402.107666,890.498779 
	C401.129303,890.086060 400.563080,890.050598 399.996857,890.015137 
	C382.677185,884.751160 365.323303,879.593628 348.090118,874.060303 
	C346.346954,873.500610 344.916382,870.856628 344.041229,868.871155 
	C331.484161,840.381042 323.597900,810.487366 318.113525,779.952209 
	C314.999695,762.615479 312.175964,745.193115 310.172729,727.700439 
	C308.432831,712.506958 308.030701,697.160278 307.442444,681.417358 
	C309.478455,679.888733 311.356659,679.071533 312.705078,677.724121 
	C414.075745,576.430542 515.407654,475.098206 616.703369,373.729706 
	C618.058350,372.373688 618.913086,370.517761 620.001282,368.895142 
	C623.336182,368.812714 626.671082,368.730255 630.792847,368.979370 
	C638.081665,369.137085 644.583557,368.963287 651.085449,368.789429 
	C664.347961,369.173798 677.611328,369.531769 690.872681,369.951569 
	C699.986755,370.240051 709.121582,370.308746 718.206299,371.006927 
	C746.416870,373.175018 774.633667,375.329468 802.795288,378.037994 
	C815.942139,379.302429 829.002991,381.622803 842.035706,383.856323 
	C850.825562,385.362732 859.488770,387.599670 868.230103,389.405609 
	C870.304626,389.834167 872.465393,389.845032 874.939087,390.332703 
	C875.573547,390.572083 875.855408,390.526764 876.137207,390.481476 
	C877.516052,390.754272 878.894897,391.027069 880.780029,391.763306 
	C882.577026,392.373016 883.867676,392.519257 885.158325,392.665466 
	C885.576355,392.727631 885.994324,392.789764 886.700195,393.345337 
	C886.216003,395.405762 885.788086,397.318054 884.617188,398.484680 
	C875.803467,407.266876 866.728210,415.787781 857.959717,424.613861 
	C848.018738,434.620178 838.387512,444.933807 828.470032,454.964081 
	C823.685242,459.803253 818.404663,464.151489 813.605713,468.977722 
	C798.831238,483.836121 784.263550,498.900543 769.456177,513.725708 
	C757.490906,525.705322 745.198242,537.357910 733.232788,549.337280 
	C724.207458,558.373047 715.531982,567.757263 706.579102,576.866760 
	C701.805908,581.723511 696.774841,586.326721 691.539795,590.945190 
	C651.161316,563.588074 611.111572,536.317810 571.038757,509.081543 
	C561.847900,502.834778 554.704834,504.942505 550.095947,515.345459 
	C549.537292,517.921570 549.039917,520.194336 549.038391,522.467529 
	C548.986267,599.309265 548.981384,676.150940 548.602112,752.891479 
	C547.490173,750.940247 546.433594,749.147766 546.079407,747.225708 
	C545.625427,744.762207 545.736694,742.194580 545.527344,738.202942 
	C534.528076,748.823547 524.550720,758.220032 514.847717,767.891724 
	C504.750244,777.956421 495.037720,788.407410 484.937134,798.468872 
	C473.546234,809.815430 461.808685,820.813904 450.409424,832.152283 
	C439.010162,843.490845 427.836853,855.056824 416.575958,866.534302 
	C411.824341,871.377319 407.046478,876.197021 402.405945,881.144897 
	C401.246948,882.380554 400.573669,884.071838 399.677124,885.553650 
	C401.405609,886.367981 403.117859,887.219849 404.870514,887.978271 
	C405.571198,888.281433 406.361023,888.378662 407.552673,888.682434 
	C406.811951,889.851135 406.304932,890.651184 405.797913,891.451172 
z"/>
<path fill="#4BC9C7" opacity="1.000000" stroke="none" 
	d="
M691.860168,591.044434 
	C696.774841,586.326721 701.805908,581.723511 706.579102,576.866760 
	C715.531982,567.757263 724.207458,558.373047 733.232788,549.337280 
	C745.198242,537.357910 757.490906,525.705322 769.456177,513.725708 
	C784.263550,498.900543 798.831238,483.836121 813.605713,468.977722 
	C818.404663,464.151489 823.685242,459.803253 828.470032,454.964081 
	C838.387512,444.933807 848.018738,434.620178 857.959717,424.613861 
	C866.728210,415.787781 875.803467,407.266876 884.617188,398.484680 
	C885.788086,397.318054 886.216003,395.405762 886.994629,393.466187 
	C902.242981,397.775391 917.530579,402.318054 932.673645,407.299896 
	C934.772522,407.990417 936.802185,410.564240 937.774414,412.750641 
	C949.046936,438.101501 956.852783,464.595917 961.792664,491.818237 
	C965.612915,512.870789 968.047791,534.175110 971.078979,555.370300 
	C971.735779,559.962830 972.309021,564.567322 972.575134,569.474670 
	C968.490112,566.467163 966.617371,569.912659 964.514465,572.014526 
	C892.309631,644.184204 820.125366,716.374451 747.938110,788.561768 
	C708.606079,827.893860 669.256775,867.208740 629.998352,906.614136 
	C628.243225,908.375854 627.313416,910.960022 625.999207,913.161072 
	C610.244629,912.827698 594.461548,912.979309 578.741882,912.052917 
	C551.904785,910.471191 525.095154,908.365601 498.296783,906.197937 
	C469.161407,903.841187 440.376434,899.035339 411.784210,893.036194 
	C410.005096,892.662964 408.245239,892.198181 406.137146,891.613525 
	C406.304932,890.651184 406.811951,889.851135 407.552673,888.682434 
	C406.361023,888.378662 405.571198,888.281433 404.870514,887.978271 
	C403.117859,887.219849 401.405609,886.367981 399.677124,885.553650 
	C400.573669,884.071838 401.246948,882.380554 402.405945,881.144897 
	C407.046478,876.197021 411.824341,871.377319 416.575958,866.534302 
	C427.836853,855.056824 439.010162,843.490845 450.409424,832.152283 
	C461.808685,820.813904 473.546234,809.815430 484.937134,798.468872 
	C495.037720,788.407410 504.750244,777.956421 514.847717,767.891724 
	C524.550720,758.220032 534.528076,748.823547 545.527344,738.202942 
	C545.736694,742.194580 545.625427,744.762207 546.079407,747.225708 
	C546.433594,749.147766 547.490173,750.940247 548.611816,753.356140 
	C549.457214,758.265930 549.925354,762.609863 550.581848,767.231567 
	C554.353394,776.633118 562.098572,778.989929 570.396240,773.342102 
	C629.875305,732.857483 689.323608,692.327515 748.824524,651.875000 
	C753.208252,648.894714 755.384827,645.370483 755.085083,639.823425 
	C754.807312,634.682312 751.713806,632.140442 748.092896,629.653381 
	C729.350708,616.780701 710.604797,603.913574 691.860168,591.044434 
z"/>
<path fill="#4DC5D5" opacity="1.000000" stroke="none" 
	d="
M619.536377,368.827026 
	C618.913086,370.517761 618.058350,372.373688 616.703369,373.729706 
	C515.407654,475.098206 414.075745,576.430542 312.705078,677.724121 
	C311.356659,679.071533 309.478455,679.888733 307.497009,680.978210 
	C306.776764,667.396179 305.981537,653.784424 306.141998,640.183838 
	C306.355621,622.076660 307.313141,603.978271 308.368958,585.265259 
	C308.755341,581.053406 308.723816,577.452332 308.692322,573.851257 
	C308.782562,573.134644 308.872803,572.418091 309.371979,571.185059 
	C309.846924,567.777222 309.912903,564.885925 309.978943,561.994568 
	C312.310913,544.051880 314.163086,526.030701 317.079651,508.183563 
	C322.353333,475.912842 330.556824,444.403809 343.384155,414.196747 
	C345.158142,410.019226 347.508118,407.310638 351.905365,406.068451 
	C370.833984,400.721527 389.640472,394.919281 408.661041,389.929382 
	C419.425964,387.105316 430.466705,385.192688 441.478821,383.486725 
	C454.406006,381.484100 467.443115,380.198975 480.420319,378.508392 
	C487.397705,377.599396 494.327789,376.292358 501.319611,375.540314 
	C506.742706,374.957001 512.246521,375.149567 517.681274,374.642059 
	C523.279968,374.119202 528.823669,373.023590 534.418762,372.440582 
	C540.352783,371.822266 546.312378,371.358398 552.272583,371.100342 
	C563.582153,370.610718 574.900574,370.327911 586.214478,369.937134 
	C597.167297,369.558838 608.119141,369.152771 619.536377,368.827026 
z"/>
<path fill="#4BCAC3" opacity="1.000000" stroke="none" 
	d="
M626.403931,913.242065 
	C627.313416,910.960022 628.243225,908.375854 629.998352,906.614136 
	C669.256775,867.208740 708.606079,827.893860 747.938110,788.561768 
	C820.125366,716.374451 892.309631,644.184204 964.514465,572.014526 
	C966.617371,569.912659 968.490112,566.467163 972.536255,569.889893 
	C972.992493,571.688721 973.141907,573.380798 973.012085,575.743469 
	C972.482971,577.277771 972.233154,578.141418 971.740173,579.075439 
	C971.661438,579.762756 971.825806,580.379639 972.065063,581.274414 
	C972.688782,582.033142 973.237549,582.513916 973.786377,582.994690 
	C973.884521,584.063477 973.982605,585.132324 973.841675,586.812134 
	C973.392334,587.950378 973.182007,588.477600 972.653076,589.135986 
	C970.294739,591.686462 970.498352,593.367920 973.891113,594.000610 
	C973.940552,595.374390 973.989990,596.748230 973.879456,598.751953 
	C974.099792,600.253479 974.480103,601.125061 974.860352,601.996704 
	C975.058533,608.398804 975.256714,614.800964 975.226685,621.809082 
	C974.672729,623.322388 974.069214,624.228027 974.063660,625.137329 
	C973.995483,636.284912 973.969604,647.433350 974.080383,658.580200 
	C974.091675,659.722168 975.056213,660.854675 975.578369,661.991638 
	C975.387390,666.025635 975.196350,670.059692 974.556519,674.548096 
	C968.953247,674.303955 967.579529,679.061829 964.953918,681.681335 
	C892.700623,753.765259 820.551941,825.954102 748.368958,898.108521 
	C745.564697,900.911682 741.752258,903.413696 748.038696,907.626038 
	C741.421570,908.017090 735.676453,909.429565 730.489380,908.293762 
	C726.907166,907.509399 724.283875,904.508118 721.723389,909.453491 
	C721.455627,909.970642 719.866577,909.947266 718.894592,909.931274 
	C714.957947,909.866638 711.015930,909.535461 707.091797,909.695190 
	C706.032654,909.738281 705.029724,911.162842 704.000977,911.953308 
	C703.557434,912.008423 703.113953,912.063538 701.992188,911.837769 
	C695.103271,911.390503 688.892700,911.149780 682.681824,911.141052 
	C681.789795,911.139771 680.896179,912.256958 680.003296,912.856506 
	C670.672363,913.021973 661.341431,913.187500 651.258789,913.030884 
	C649.002502,912.466553 647.497864,912.224304 645.835327,911.639282 
	C642.314331,909.557373 639.006409,908.596069 635.616333,911.986633 
	C633.790527,912.395142 632.355164,912.799072 630.919800,913.202881 
	C629.549377,913.242920 628.179016,913.282959 626.403931,913.242065 
z"/>
<path fill="#4ACAC1" opacity="1.000000" stroke="none" 
	d="
M704.466797,912.005554 
	C705.029724,911.162842 706.032654,909.738281 707.091797,909.695190 
	C711.015930,909.535461 714.957947,909.866638 718.894592,909.931274 
	C719.866577,909.947266 721.455627,909.970642 721.723389,909.453491 
	C724.283875,904.508118 726.907166,907.509399 730.489380,908.293762 
	C735.676453,909.429565 741.421570,908.017090 748.038696,907.626038 
	C741.752258,903.413696 745.564697,900.911682 748.368958,898.108521 
	C820.551941,825.954102 892.700623,753.765259 964.953918,681.681335 
	C967.579529,679.061829 968.953247,674.303955 974.496704,675.001648 
	C974.299866,683.037354 973.714111,691.074036 973.127930,699.110657 
	C972.768799,704.034241 972.599854,708.980530 972.015930,713.877380 
	C969.806458,732.407959 967.636353,750.946167 965.131042,769.438049 
	C960.524902,803.436035 951.815918,836.339050 938.495178,868.012939 
	C936.786865,872.075012 934.306458,874.320129 930.301575,875.792847 
	C900.462280,886.766052 869.641968,893.870483 838.343994,898.940552 
	C821.186768,901.719788 803.935547,904.008423 786.663940,905.964905 
	C771.032959,907.735596 755.326477,908.883362 739.635010,910.062683 
	C728.082825,910.930847 716.501221,911.406982 704.466797,912.005554 
z"/>
<path fill="#4ACAC1" opacity="1.000000" stroke="none" 
	d="
M975.669800,661.531494 
	C975.056213,660.854675 974.091675,659.722168 974.080383,658.580200 
	C973.969604,647.433350 973.995483,636.284912 974.063660,625.137329 
	C974.069214,624.228027 974.672729,623.322388 975.310059,622.212524 
	C975.668213,635.030396 975.714661,648.050842 975.669800,661.531494 
z"/>
<path fill="#4ACAC1" opacity="1.000000" stroke="none" 
	d="
M680.468323,912.914124 
	C680.896179,912.256958 681.789795,911.139771 682.681824,911.141052 
	C688.892700,911.149780 695.103271,911.390503 701.659424,911.785400 
	C694.981018,912.333191 687.957214,912.652466 680.468323,912.914124 
z"/>
<path fill="#4DC5D5" opacity="1.000000" stroke="none" 
	d="
M308.418518,574.170654 
	C308.723816,577.452332 308.755341,581.053406 308.449829,584.825378 
	C308.123413,581.494202 308.134064,577.992065 308.418518,574.170654 
z"/>
<path fill="#4DC5D5" opacity="1.000000" stroke="none" 
	d="
M650.615967,368.703064 
	C644.583557,368.963287 638.081665,369.137085 631.240417,369.050568 
	C637.316223,368.732361 643.731323,368.674500 650.615967,368.703064 
z"/>
<path fill="#4ACAC1" opacity="1.000000" stroke="none" 
	d="
M645.993286,911.982056 
	C647.497864,912.224304 649.002502,912.466553 650.800903,912.955444 
	C644.682495,913.259949 638.270142,913.317749 631.388794,913.289246 
	C632.355164,912.799072 633.790527,912.395142 636.069458,911.991272 
	C639.939819,911.988281 642.966553,911.985168 645.993286,911.982056 
z"/>
<path fill="#4DC5D5" opacity="1.000000" stroke="none" 
	d="
M309.876770,562.379822 
	C309.912903,564.885925 309.846924,567.777222 309.451477,570.832764 
	C309.339539,568.252930 309.557068,565.509033 309.876770,562.379822 
z"/>
<path fill="#4BC9C7" opacity="1.000000" stroke="none" 
	d="
M973.954468,593.634949 
	C970.498352,593.367920 970.294739,591.686462 972.730774,589.430481 
	C973.476196,590.080750 973.825378,590.567688 974.174500,591.054626 
	C974.122253,591.792847 974.069946,592.531067 973.954468,593.634949 
z"/>
<path fill="#4ACAC1" opacity="1.000000" stroke="none" 
	d="
M971.983337,579.005066 
	C972.233154,578.141418 972.482971,577.277771 972.970398,576.166321 
	C973.435120,578.012695 973.662231,580.106873 973.837891,582.597900 
	C973.237549,582.513916 972.688782,582.033142 972.066467,580.942566 
	C971.989746,579.890198 971.986572,579.447632 971.983337,579.005066 
z"/>
<path fill="#4ACAC1" opacity="1.000000" stroke="none" 
	d="
M974.913940,601.659790 
	C974.480103,601.125061 974.099792,600.253479 973.918152,599.162964 
	C974.400391,599.737061 974.683960,600.529968 974.913940,601.659790 
z"/>
<path fill="#4BC9C7" opacity="1.000000" stroke="none" 
	d="
M884.839783,392.478821 
	C883.867676,392.519257 882.577026,392.373016 881.065491,391.967346 
	C882.070129,391.902679 883.295715,392.097443 884.839783,392.478821 
z"/>
<path fill="#4ACAC1" opacity="1.000000" stroke="none" 
	d="
M974.235596,590.650513 
	C973.825378,590.567688 973.476196,590.080750 973.049377,589.299316 
	C973.182007,588.477600 973.392334,587.950378 973.797729,587.213440 
	C974.094055,588.084656 974.195435,589.165527 974.235596,590.650513 
z"/>
<path fill="#4BC9C7" opacity="1.000000" stroke="none" 
	d="
M400.304688,890.150085 
	C400.563080,890.050598 401.129303,890.086060 401.808044,890.353821 
	C401.484558,890.485779 401.048553,890.385376 400.304688,890.150085 
z"/>
<path fill="#4BCAC3" opacity="1.000000" stroke="none" 
	d="
M984.302246,482.243896 
	C984.478088,482.235962 984.650940,482.542023 984.674927,482.995819 
	C984.450439,482.948303 984.374878,482.753113 984.302246,482.243896 
z"/>
<path fill="#4BC9C7" opacity="1.000000" stroke="none" 
	d="
M875.908325,390.379028 
	C875.855408,390.526764 875.573547,390.572083 875.234802,390.443848 
	C875.344971,390.272400 875.512146,390.274475 875.908325,390.379028 
z"/>
<path fill="#FDFEFE" opacity="1.000000" stroke="none" 
	d="
M691.539795,590.945190 
	C710.604797,603.913574 729.350708,616.780701 748.092896,629.653381 
	C751.713806,632.140442 754.807312,634.682312 755.085083,639.823425 
	C755.384827,645.370483 753.208252,648.894714 748.824524,651.875000 
	C689.323608,692.327515 629.875305,732.857483 570.396240,773.342102 
	C562.098572,778.989929 554.353394,776.633118 550.565552,766.765320 
	C550.324646,763.689087 550.256836,761.356812 550.256592,759.024597 
	C550.248413,680.862427 550.244995,602.700317 550.250244,524.538147 
	C550.250427,521.372864 550.340271,518.207642 550.388306,515.042358 
	C554.704834,504.942505 561.847900,502.834778 571.038757,509.081543 
	C611.111572,536.317810 651.161316,563.588074 691.539795,590.945190 
M574.067078,584.500000 
	C574.067078,636.715698 574.067078,688.931396 574.067078,742.205566 
	C624.040466,708.191101 673.086304,674.807922 722.769592,640.990906 
	C673.020630,607.115234 623.922058,573.682434 574.067078,539.734619 
	C574.067078,555.194641 574.067078,569.347351 574.067078,584.500000 
z"/>
<path fill="#30BEC6" opacity="1.000000" stroke="none" 
	d="
M550.095947,515.345459 
	C550.340271,518.207642 550.250427,521.372864 550.250244,524.538147 
	C550.244995,602.700317 550.248413,680.862427 550.256592,759.024597 
	C550.256836,761.356812 550.324646,763.689087 550.377197,766.487549 
	C549.925354,762.609863 549.457214,758.265930 548.979370,753.457275 
	C548.981384,676.150940 548.986267,599.309265 549.038391,522.467529 
	C549.039917,520.194336 549.537292,517.921570 550.095947,515.345459 
z"/>
<path fill="#4BC9C7" opacity="1.000000" stroke="none" 
	d="
M645.835327,911.639282 
	C642.966553,911.985168 639.939819,911.988281 636.459900,911.986694 
	C639.006409,908.596069 642.314331,909.557373 645.835327,911.639282 
z"/>
<path fill="#4BC9C7" opacity="1.000000" stroke="none" 
	d="
M971.740173,579.075439 
	C971.986572,579.447632 971.989746,579.890198 971.991577,580.664673 
	C971.825806,580.379639 971.661438,579.762756 971.740173,579.075439 
z"/>
<path fill="#4CC7CC" opacity="1.000000" stroke="none" 
	d="
M574.067078,584.000000 
	C574.067078,569.347351 574.067078,555.194641 574.067078,539.734619 
	C623.922058,573.682434 673.020630,607.115234 722.769592,640.990906 
	C673.086304,674.807922 624.040466,708.191101 574.067078,742.205566 
	C574.067078,688.931396 574.067078,636.715698 574.067078,584.000000 
z"/>
</svg>